<svg width="55" height="55" viewBox="0 0 55 55" fill="none" xmlns="http://www.w3.org/2000/svg">
<g clip-path="url(#clip0)">
<rect width="55" height="55" rx="23.5" fill="#E84241"/>
<rect x="0.25" y="0.25" width="54.5" height="54.5" rx="23.25" stroke="white" stroke-opacity="0.3" stroke-width="0.5"/>
<g filter="url(#filter0_dddddd)">
<path d="M21.2117 19.0834H16.0731C15.7574 19.0834 15.5 19.3408 15.5 19.6583V37.1636C15.5 37.4812 15.7574 37.7367 16.0731 37.7367H21.2117C21.5293 37.7367 21.7848 37.4793 21.7848 37.1636V19.6583C21.7848 19.3408 21.5274 19.0834 21.2117 19.0834ZM18.6415 36.3163C17.858 36.3163 17.2229 35.6812 17.2229 34.8977C17.2229 34.1142 17.858 33.4792 18.6415 33.4792C19.4249 33.4792 20.06 34.1142 20.06 34.8977C20.06 35.6812 19.4268 36.3163 18.6415 36.3163ZM20.6706 29.2875C20.6706 29.3701 20.603 29.4359 20.5203 29.4359H16.7645C16.6818 29.4359 16.6142 29.3682 16.6142 29.2875V20.8044C16.6142 20.7217 16.6818 20.6541 16.7645 20.6541H17.4033L18.5005 21.7513C18.5795 21.8302 18.7072 21.8302 18.7861 21.7513L19.8815 20.656H20.5203C20.603 20.656 20.6706 20.7236 20.6706 20.8063V29.2875Z" fill="white"/>
<path d="M20.0618 23.2375H17.2229C17.0669 23.2375 16.941 23.1116 16.941 22.9557C16.941 22.7997 17.0669 22.6738 17.2229 22.6738H20.0618C20.2178 22.6738 20.3437 22.7997 20.3437 22.9557C20.3437 23.1116 20.2178 23.2375 20.0618 23.2375Z" fill="white"/>
<path d="M20.0618 24.4889H17.2229C17.0669 24.4889 16.941 24.363 16.941 24.2071C16.941 24.0511 17.0669 23.9252 17.2229 23.9252H20.0618C20.2178 23.9252 20.3437 24.0511 20.3437 24.2071C20.3437 24.363 20.2178 24.4889 20.0618 24.4889Z" fill="white"/>
<path d="M20.0618 25.7421H17.2229C17.0669 25.7421 16.941 25.6162 16.941 25.4603C16.941 25.3043 17.0669 25.1785 17.2229 25.1785H20.0618C20.2178 25.1785 20.3437 25.3043 20.3437 25.4603C20.3437 25.6162 20.2178 25.7421 20.0618 25.7421Z" fill="white"/>
<path d="M20.0618 26.9952H17.2229C17.0669 26.9952 16.941 26.8694 16.941 26.7134C16.941 26.5575 17.0669 26.4316 17.2229 26.4316H20.0618C20.2178 26.4316 20.3437 26.5575 20.3437 26.7134C20.3437 26.8694 20.2178 26.9952 20.0618 26.9952Z" fill="white"/>
<path d="M20.0618 28.2467H17.2229C17.0669 28.2467 16.941 28.1208 16.941 27.9648C16.941 27.8089 17.0669 27.683 17.2229 27.683H20.0618C20.2178 27.683 20.3437 27.8089 20.3437 27.9648C20.3437 28.1208 20.2178 28.2467 20.0618 28.2467Z" fill="white"/>
<path d="M28.5393 19.0834H23.4006C23.085 19.0834 22.8275 19.3408 22.8275 19.6583V37.1636C22.8275 37.4812 23.085 37.7367 23.4006 37.7367H28.5393C28.8568 37.7367 29.1123 37.4793 29.1123 37.1636V19.6583C29.1123 19.3408 28.8549 19.0834 28.5393 19.0834ZM25.969 36.3163C25.1855 36.3163 24.5505 35.6812 24.5505 34.8977C24.5505 34.1142 25.1855 33.4792 25.969 33.4792C26.7525 33.4792 27.3875 34.1142 27.3875 34.8977C27.3875 35.6812 26.7544 36.3163 25.969 36.3163ZM27.9982 29.2875C27.9982 29.3701 27.9305 29.4359 27.8479 29.4359H24.092C24.0093 29.4359 23.9417 29.3682 23.9417 29.2875V20.8044C23.9417 20.7217 24.0093 20.6541 24.092 20.6541H24.7308L25.8281 21.7513C25.907 21.8302 26.0348 21.8302 26.1137 21.7513L27.2091 20.656H27.8479C27.9305 20.656 27.9982 20.7236 27.9982 20.8063V29.2875Z" fill="white"/>
<path d="M27.3895 23.2375H24.5505C24.3946 23.2375 24.2687 23.1116 24.2687 22.9557C24.2687 22.7997 24.3946 22.6738 24.5505 22.6738H27.3895C27.5454 22.6738 27.6713 22.7997 27.6713 22.9557C27.6713 23.1116 27.5454 23.2375 27.3895 23.2375Z" fill="white"/>
<path d="M27.3895 24.4889H24.5505C24.3946 24.4889 24.2687 24.363 24.2687 24.2071C24.2687 24.0511 24.3946 23.9252 24.5505 23.9252H27.3895C27.5454 23.9252 27.6713 24.0511 27.6713 24.2071C27.6713 24.363 27.5454 24.4889 27.3895 24.4889Z" fill="white"/>
<path d="M27.3895 25.7421H24.5505C24.3946 25.7421 24.2687 25.6162 24.2687 25.4603C24.2687 25.3043 24.3946 25.1785 24.5505 25.1785H27.3895C27.5454 25.1785 27.6713 25.3043 27.6713 25.4603C27.6713 25.6162 27.5454 25.7421 27.3895 25.7421Z" fill="white"/>
<path d="M27.3895 26.9952H24.5505C24.3946 26.9952 24.2687 26.8694 24.2687 26.7134C24.2687 26.5575 24.3946 26.4316 24.5505 26.4316H27.3895C27.5454 26.4316 27.6713 26.5575 27.6713 26.7134C27.6713 26.8694 27.5454 26.9952 27.3895 26.9952Z" fill="white"/>
<path d="M27.3895 28.2467H24.5505C24.3946 28.2467 24.2687 28.1208 24.2687 27.9648C24.2687 27.8089 24.3946 27.683 24.5505 27.683H27.3895C27.5454 27.683 27.6713 27.8089 27.6713 27.9648C27.6713 28.1208 27.5454 28.2467 27.3895 28.2467Z" fill="white"/>
<path d="M39.4875 35.9874L35.8877 18.856C35.8219 18.546 35.5194 18.3468 35.2094 18.4125L30.1815 19.4703C29.8715 19.5361 29.6724 19.8386 29.7381 20.1486L33.338 37.2801C33.4038 37.5901 33.7063 37.7892 34.0163 37.7235L39.0441 36.6676C39.3542 36.6018 39.5533 36.2975 39.4875 35.9874ZM32.9867 29.4603C32.9059 29.4772 32.8269 29.4264 32.8101 29.3457L31.0646 21.043C31.0477 20.9622 31.0984 20.8833 31.1792 20.8663L31.803 20.7348L33.1013 21.5822C33.1952 21.6442 33.3211 21.6179 33.3812 21.524L34.2286 20.2257L34.8524 20.0941C34.9332 20.0772 35.0121 20.128 35.029 20.2087L36.7745 28.5114C36.7914 28.5923 36.7406 28.6712 36.6599 28.6881L32.9867 29.4603ZM36.239 35.8052C35.4724 35.9668 34.719 35.4745 34.5574 34.7079C34.3958 33.9414 34.8881 33.188 35.6547 33.0264C36.4212 32.8647 37.1747 33.357 37.3362 34.1236C37.4978 34.8921 37.0056 35.6455 36.239 35.8052Z" fill="white"/>
<path d="M32.1016 23.305C31.9719 23.305 31.8535 23.2129 31.8254 23.0814C31.7934 22.9292 31.8912 22.7789 32.0433 22.7469L34.8203 22.1627C34.9725 22.1307 35.1228 22.2284 35.1547 22.3806C35.1867 22.5328 35.089 22.6831 34.9368 22.715L32.1598 23.2994C32.141 23.3012 32.1204 23.305 32.1016 23.305Z" fill="white"/>
<path d="M32.3591 24.5302C32.2294 24.5302 32.111 24.4381 32.0828 24.3066C32.0509 24.1544 32.1486 24.0041 32.3008 23.9721L35.0777 23.3879C35.2299 23.3559 35.3802 23.4536 35.4122 23.6058C35.4441 23.758 35.3464 23.9083 35.1942 23.9402L32.4173 24.5246C32.3985 24.5283 32.3778 24.5302 32.3591 24.5302Z" fill="white"/>
<path d="M32.6165 25.7551C32.4868 25.7551 32.3685 25.663 32.3403 25.5315C32.3084 25.3793 32.406 25.229 32.5582 25.197L35.3352 24.6128C35.4874 24.5808 35.6377 24.6785 35.6696 24.8307C35.7015 24.9829 35.6039 25.1332 35.4517 25.1651L32.6747 25.7495C32.6559 25.7532 32.6372 25.7551 32.6165 25.7551Z" fill="white"/>
<path d="M32.8738 26.982C32.7442 26.982 32.6258 26.89 32.5976 26.7585C32.5657 26.6063 32.6634 26.456 32.8156 26.424L35.5926 25.8397C35.7447 25.8078 35.895 25.9055 35.927 26.0576C35.9589 26.2098 35.8612 26.3601 35.709 26.3921L32.932 26.9764C32.9133 26.9802 32.8945 26.982 32.8738 26.982Z" fill="white"/>
<path d="M33.1331 28.2071C33.0034 28.2071 32.885 28.115 32.8569 27.9835C32.8249 27.8313 32.9227 27.681 33.0748 27.649L35.8518 27.0647C36.004 27.0328 36.1543 27.1305 36.1862 27.2827C36.2182 27.4348 36.1205 27.5851 35.9683 27.6171L33.1913 28.2015C33.1706 28.2052 33.1519 28.2071 33.1331 28.2071Z" fill="white"/>
</g>
</g>
<defs>
<filter id="filter0_dddddd" x="-64.5" y="16" width="184" height="204" filterUnits="userSpaceOnUse" color-interpolation-filters="sRGB">
<feFlood flood-opacity="0" result="BackgroundImageFix"/>
<feColorMatrix in="SourceAlpha" type="matrix" values="0 0 0 0 0 0 0 0 0 0 0 0 0 0 0 0 0 0 127 0"/>
<feOffset dy="2.76726"/>
<feGaussianBlur stdDeviation="1.1069"/>
<feColorMatrix type="matrix" values="0 0 0 0 0.854902 0 0 0 0 0.105882 0 0 0 0 0.105882 0 0 0 0.13495 0"/>
<feBlend mode="normal" in2="BackgroundImageFix" result="effect1_dropShadow"/>
<feColorMatrix in="SourceAlpha" type="matrix" values="0 0 0 0 0 0 0 0 0 0 0 0 0 0 0 0 0 0 127 0"/>
<feOffset dy="6.6501"/>
<feGaussianBlur stdDeviation="2.66004"/>
<feColorMatrix type="matrix" values="0 0 0 0 0.854902 0 0 0 0 0.105882 0 0 0 0 0.105882 0 0 0 0.193869 0"/>
<feBlend mode="normal" in2="effect1_dropShadow" result="effect2_dropShadow"/>
<feColorMatrix in="SourceAlpha" type="matrix" values="0 0 0 0 0 0 0 0 0 0 0 0 0 0 0 0 0 0 127 0"/>
<feOffset dy="12.5216"/>
<feGaussianBlur stdDeviation="5.00862"/>
<feColorMatrix type="matrix" values="0 0 0 0 0.854902 0 0 0 0 0.105882 0 0 0 0 0.105882 0 0 0 0.24 0"/>
<feBlend mode="normal" in2="effect2_dropShadow" result="effect3_dropShadow"/>
<feColorMatrix in="SourceAlpha" type="matrix" values="0 0 0 0 0 0 0 0 0 0 0 0 0 0 0 0 0 0 127 0"/>
<feOffset dy="22.3363"/>
<feGaussianBlur stdDeviation="8.93452"/>
<feColorMatrix type="matrix" values="0 0 0 0 0.854902 0 0 0 0 0.105882 0 0 0 0 0.105882 0 0 0 0.286131 0"/>
<feBlend mode="normal" in2="effect3_dropShadow" result="effect4_dropShadow"/>
<feColorMatrix in="SourceAlpha" type="matrix" values="0 0 0 0 0 0 0 0 0 0 0 0 0 0 0 0 0 0 127 0"/>
<feOffset dy="41.7776"/>
<feGaussianBlur stdDeviation="16.711"/>
<feColorMatrix type="matrix" values="0 0 0 0 0.854902 0 0 0 0 0.105882 0 0 0 0 0.105882 0 0 0 0.34505 0"/>
<feBlend mode="normal" in2="effect4_dropShadow" result="effect5_dropShadow"/>
<feColorMatrix in="SourceAlpha" type="matrix" values="0 0 0 0 0 0 0 0 0 0 0 0 0 0 0 0 0 0 127 0"/>
<feOffset dy="100"/>
<feGaussianBlur stdDeviation="40"/>
<feColorMatrix type="matrix" values="0 0 0 0 0.854902 0 0 0 0 0.105882 0 0 0 0 0.105882 0 0 0 0.48 0"/>
<feBlend mode="normal" in2="effect5_dropShadow" result="effect6_dropShadow"/>
<feBlend mode="normal" in="SourceGraphic" in2="effect6_dropShadow" result="shape"/>
</filter>
<clipPath id="clip0">
<path d="M0 23.5C0 10.5213 10.5213 0 23.5 0H31.5C44.4787 0 55 10.5213 55 23.5V31.5C55 44.4787 44.4787 55 31.5 55H23.5C10.5213 55 0 44.4787 0 31.5V23.5Z" fill="white"/>
</clipPath>
</defs>
</svg>
