<svg width="55" height="55" viewBox="0 0 55 55" fill="none" xmlns="http://www.w3.org/2000/svg">
<g clip-path="url(#clip0)">
<rect width="55" height="55" rx="23.5" fill="#00A3A1"/>
<rect x="0.25" y="0.25" width="54.5" height="54.5" rx="23.25" stroke="white" stroke-opacity="0.3" stroke-width="0.5"/>
<g filter="url(#filter0_dddddd)">
<path d="M23.6419 34.9283C22.7494 34.9283 22.0819 34.7971 21.4856 34.6471C21.0881 34.5458 20.8069 34.1858 20.8069 33.7733V32.5846C20.4544 32.4196 20.1169 32.2246 19.7981 31.9996L18.7969 32.5771C18.4369 32.7871 17.9756 32.7196 17.6906 32.4158C16.3631 31.0058 16.0331 30.2183 15.5456 28.7221C15.4106 28.3133 15.5869 27.8708 15.9581 27.6571L16.9631 27.0946C16.9294 26.7083 16.9294 26.3183 16.9631 25.9283L15.9581 25.3621C15.5831 25.1521 15.4106 24.7058 15.5456 24.2971C16.0369 22.7971 16.3669 22.0133 17.6906 20.6033C17.9756 20.2996 18.4331 20.2321 18.7969 20.4421L19.7981 21.0196C20.1169 20.7946 20.4544 20.5996 20.8069 20.4346V19.3021C20.8069 18.8858 21.0919 18.5221 21.4969 18.4283C23.1544 18.0346 24.1219 18.0346 25.7831 18.4283C26.1881 18.5258 26.4731 18.8858 26.4731 19.3021V20.4421C26.8256 20.6071 27.1631 20.8021 27.4819 21.0271L28.4831 20.4496C28.8469 20.2396 29.3044 20.3108 29.5931 20.6146C30.5719 21.6608 31.4081 22.8083 31.7231 24.3758C31.7981 24.7433 31.6331 25.1183 31.3144 25.3171L30.3169 25.9358C30.3506 26.3221 30.3506 26.7121 30.3169 27.1021L31.3144 27.7208C31.6294 27.9158 31.7981 28.2908 31.7231 28.6546C31.4194 30.1733 30.6131 31.3283 29.5894 32.4271C29.3044 32.7308 28.8469 32.7983 28.4831 32.5883L27.4819 32.0108C27.1631 32.2358 26.8256 32.4308 26.4731 32.5958V33.7846C26.4731 34.1971 26.1956 34.5571 25.7944 34.6583C25.2019 34.8008 24.5344 34.9283 23.6419 34.9283ZM22.6069 33.0271C23.2931 33.1358 23.9906 33.1358 24.6731 33.0271V31.3471L25.2731 31.1333C25.8431 30.9308 26.3644 30.6308 26.8219 30.2371L27.3056 29.8246L28.7606 30.6646C29.1994 30.1246 29.5481 29.5208 29.7956 28.8758L28.3406 28.0358L28.4569 27.4096C28.5656 26.8133 28.5656 26.2096 28.4569 25.6133L28.3406 24.9871L29.7956 24.1471C29.5481 23.5021 29.1994 22.8983 28.7606 22.3583L27.3056 23.1983L26.8219 22.7858C26.3606 22.3921 25.8394 22.0883 25.2731 21.8896L24.6731 21.6758V19.9996C23.9869 19.8908 23.2894 19.8908 22.6069 19.9996V21.6796L22.0069 21.8933C21.4369 22.0958 20.9156 22.3958 20.4581 22.7896L19.9744 23.2021L18.5194 22.3621C18.0806 22.9021 17.7319 23.5058 17.4844 24.1508L18.9394 24.9908L18.8231 25.6171C18.7144 26.2133 18.7144 26.8171 18.8231 27.4133L18.9394 28.0396L17.4844 28.8796C17.7319 29.5246 18.0806 30.1321 18.5194 30.6683L19.9744 29.8283L20.4581 30.2408C20.9194 30.6346 21.4406 30.9383 22.0069 31.1371L22.6069 31.3508V33.0271ZM23.6231 29.8358C22.7756 29.8358 21.9281 29.5133 21.2831 28.8683C19.9931 27.5783 19.9931 25.4783 21.2831 24.1883C22.5731 22.8983 24.6731 22.8983 25.9631 24.1883C27.2531 25.4783 27.2531 27.5783 25.9631 28.8683C25.3144 29.5133 24.4669 29.8358 23.6231 29.8358ZM23.6231 25.0208C23.2369 25.0208 22.8506 25.1671 22.5544 25.4633C21.9656 26.0521 21.9656 27.0083 22.5544 27.5971C23.1431 28.1858 24.0994 28.1858 24.6881 27.5971C25.2769 27.0083 25.2769 26.0521 24.6881 25.4633C24.3956 25.1671 24.0094 25.0208 23.6231 25.0208ZM39.4444 20.1871C39.4069 19.9696 39.2194 19.8121 38.9981 19.8121H38.3944C38.2631 19.4408 38.0644 19.0996 37.8131 18.8071L38.1131 18.2858C38.2219 18.0946 38.1806 17.8508 38.0119 17.7121C37.6631 17.4233 37.2694 17.1908 36.8381 17.0296C36.6319 16.9508 36.3956 17.0333 36.2869 17.2283L35.9869 17.7496C35.6044 17.6783 35.2106 17.6783 34.8281 17.7496L34.5281 17.2283C34.4156 17.0371 34.1831 16.9546 33.9769 17.0296C33.5456 17.1908 33.1481 17.4233 32.7994 17.7121C32.6306 17.8508 32.5856 18.0946 32.6981 18.2858L32.9981 18.8071C32.7469 19.0996 32.5481 19.4408 32.4169 19.8121H31.8131C31.5919 19.8121 31.4006 19.9733 31.3669 20.1946C31.2919 20.6521 31.2956 21.1133 31.3669 21.5521C31.4044 21.7696 31.5919 21.9271 31.8131 21.9271H32.4169C32.5481 22.2983 32.7469 22.6396 32.9981 22.9321L32.6981 23.4533C32.5894 23.6446 32.6306 23.8883 32.7994 24.0271C33.1481 24.3158 33.5456 24.5483 33.9769 24.7096C34.1831 24.7883 34.4194 24.7058 34.5281 24.5108L34.8281 23.9896C35.2106 24.0608 35.6044 24.0608 35.9869 23.9896L36.2869 24.5108C36.3994 24.7021 36.6319 24.7846 36.8381 24.7096C37.2694 24.5483 37.6669 24.3158 38.0156 24.0271C38.1844 23.8883 38.2294 23.6446 38.1169 23.4533L37.8169 22.9321C38.0681 22.6396 38.2669 22.2983 38.3981 21.9271H39.0019C39.2231 21.9271 39.4144 21.7658 39.4481 21.5446C39.5194 21.0871 39.5194 20.6296 39.4444 20.1871ZM35.4019 22.0696C34.7381 22.0696 34.2019 21.5333 34.2019 20.8696C34.2019 20.2058 34.7381 19.6696 35.4019 19.6696C36.0656 19.6696 36.6019 20.2058 36.6019 20.8696C36.6019 21.5333 36.0656 22.0696 35.4019 22.0696ZM39.4444 31.6471C39.4069 31.4296 39.2194 31.2721 38.9981 31.2721H38.3944C38.2631 30.9008 38.0644 30.5596 37.8131 30.2671L38.1131 29.7458C38.2219 29.5546 38.1806 29.3108 38.0119 29.1721C37.6631 28.8833 37.2656 28.6508 36.8344 28.4896C36.6281 28.4108 36.3919 28.4933 36.2831 28.6883L35.9831 29.2096C35.6006 29.1383 35.2069 29.1383 34.8244 29.2096L34.5244 28.6883C34.4119 28.4971 34.1794 28.4146 33.9731 28.4896C33.5419 28.6508 33.1444 28.8833 32.7956 29.1721C32.6269 29.3108 32.5819 29.5546 32.6944 29.7458L32.9944 30.2671C32.7431 30.5596 32.5444 30.9008 32.4131 31.2721H31.8094C31.5881 31.2721 31.3969 31.4333 31.3631 31.6546C31.2881 32.1121 31.2919 32.5733 31.3631 33.0121C31.4006 33.2296 31.5881 33.3871 31.8094 33.3871H32.4131C32.5444 33.7583 32.7431 34.0996 32.9944 34.3921L32.6944 34.9133C32.5856 35.1046 32.6269 35.3483 32.7956 35.4871C33.1444 35.7758 33.5419 36.0083 33.9731 36.1696C34.1794 36.2483 34.4156 36.1658 34.5244 35.9708L34.8244 35.4496C35.2069 35.5208 35.6006 35.5208 35.9831 35.4496L36.2831 35.9708C36.3956 36.1621 36.6281 36.2446 36.8344 36.1696C37.2656 36.0083 37.6631 35.7758 38.0119 35.4871C38.1806 35.3483 38.2256 35.1046 38.1131 34.9133L37.8131 34.3921C38.0644 34.0996 38.2631 33.7583 38.3944 33.3871H38.9981C39.2194 33.3871 39.4106 33.2258 39.4444 33.0046C39.5194 32.5508 39.5194 32.0896 39.4444 31.6471ZM35.4019 33.5296C34.7381 33.5296 34.2019 32.9933 34.2019 32.3296C34.2019 31.6658 34.7381 31.1296 35.4019 31.1296C36.0656 31.1296 36.6019 31.6658 36.6019 32.3296C36.6019 32.9933 36.0656 33.5296 35.4019 33.5296Z" fill="white"/>
</g>
</g>
<defs>
<filter id="filter0_dddddd" x="-64.5" y="15" width="184.001" height="204" filterUnits="userSpaceOnUse" color-interpolation-filters="sRGB">
<feFlood flood-opacity="0" result="BackgroundImageFix"/>
<feColorMatrix in="SourceAlpha" type="matrix" values="0 0 0 0 0 0 0 0 0 0 0 0 0 0 0 0 0 0 127 0"/>
<feOffset dy="2.76726"/>
<feGaussianBlur stdDeviation="1.1069"/>
<feColorMatrix type="matrix" values="0 0 0 0 0 0 0 0 0 0.560784 0 0 0 0 0.54902 0 0 0 0.129327 0"/>
<feBlend mode="normal" in2="BackgroundImageFix" result="effect1_dropShadow"/>
<feColorMatrix in="SourceAlpha" type="matrix" values="0 0 0 0 0 0 0 0 0 0 0 0 0 0 0 0 0 0 127 0"/>
<feOffset dy="6.6501"/>
<feGaussianBlur stdDeviation="2.66004"/>
<feColorMatrix type="matrix" values="0 0 0 0 0 0 0 0 0 0.560784 0 0 0 0 0.54902 0 0 0 0.185791 0"/>
<feBlend mode="normal" in2="effect1_dropShadow" result="effect2_dropShadow"/>
<feColorMatrix in="SourceAlpha" type="matrix" values="0 0 0 0 0 0 0 0 0 0 0 0 0 0 0 0 0 0 127 0"/>
<feOffset dy="12.5216"/>
<feGaussianBlur stdDeviation="5.00862"/>
<feColorMatrix type="matrix" values="0 0 0 0 0 0 0 0 0 0.560784 0 0 0 0 0.54902 0 0 0 0.23 0"/>
<feBlend mode="normal" in2="effect2_dropShadow" result="effect3_dropShadow"/>
<feColorMatrix in="SourceAlpha" type="matrix" values="0 0 0 0 0 0 0 0 0 0 0 0 0 0 0 0 0 0 127 0"/>
<feOffset dy="22.3363"/>
<feGaussianBlur stdDeviation="8.93452"/>
<feColorMatrix type="matrix" values="0 0 0 0 0 0 0 0 0 0.560784 0 0 0 0 0.54902 0 0 0 0.274209 0"/>
<feBlend mode="normal" in2="effect3_dropShadow" result="effect4_dropShadow"/>
<feColorMatrix in="SourceAlpha" type="matrix" values="0 0 0 0 0 0 0 0 0 0 0 0 0 0 0 0 0 0 127 0"/>
<feOffset dy="41.7776"/>
<feGaussianBlur stdDeviation="16.711"/>
<feColorMatrix type="matrix" values="0 0 0 0 0 0 0 0 0 0.560784 0 0 0 0 0.54902 0 0 0 0.330673 0"/>
<feBlend mode="normal" in2="effect4_dropShadow" result="effect5_dropShadow"/>
<feColorMatrix in="SourceAlpha" type="matrix" values="0 0 0 0 0 0 0 0 0 0 0 0 0 0 0 0 0 0 127 0"/>
<feOffset dy="100"/>
<feGaussianBlur stdDeviation="40"/>
<feColorMatrix type="matrix" values="0 0 0 0 0 0 0 0 0 0.560784 0 0 0 0 0.54902 0 0 0 0.46 0"/>
<feBlend mode="normal" in2="effect5_dropShadow" result="effect6_dropShadow"/>
<feBlend mode="normal" in="SourceGraphic" in2="effect6_dropShadow" result="shape"/>
</filter>
<clipPath id="clip0">
<path d="M0 23.5C0 10.5213 10.5213 0 23.5 0H31.5C44.4787 0 55 10.5213 55 23.5V31.5C55 44.4787 44.4787 55 31.5 55H23.5C10.5213 55 0 44.4787 0 31.5V23.5Z" fill="white"/>
</clipPath>
</defs>
</svg>
