<svg width="55" height="55" viewBox="0 0 55 55" fill="none" xmlns="http://www.w3.org/2000/svg">
<g clip-path="url(#clip0)">
<rect y="-6.10352e-05" width="55" height="55" rx="23.5" fill="#5EC14A"/>
<rect x="0.25" y="0.249939" width="54.5" height="54.5" rx="23.25" stroke="white" stroke-opacity="0.3" stroke-width="0.5"/>
<g filter="url(#filter0_dddddd)">
<path fill-rule="evenodd" clip-rule="evenodd" d="M16.5 17.7164V37.8184H25.9537C25.9537 37.4932 25.9649 37.1679 25.9876 36.8495H17.4982V18.028C17.4982 17.4431 17.9725 16.9711 18.5551 16.9711H27.6384V22.5471H32.9569V24.7287H33.9551V22.0593L28.1353 16H18.2164C17.2679 16 16.5 16.7679 16.5 17.7164ZM28.6344 17.94L32.1236 21.576H28.6344V17.94Z" fill="white"/>
<path d="M25.9537 28.3624C26.3128 28.0214 26.6923 27.6985 27.0875 27.3936H22.7333V28.3624H25.9537Z" fill="white"/>
<path d="M25.1182 32.2423C25.1678 32.1249 25.2197 32.0097 25.2717 31.8945C25.3214 31.7861 25.3733 31.68 25.4253 31.5738C25.475 31.4745 25.5247 31.3728 25.5766 31.2735H22.7333V32.2423H25.1182Z" fill="white"/>
<path d="M21.4866 27.8791C21.4866 28.5499 20.9287 29.0919 20.2399 29.0919C19.5511 29.0919 18.9933 28.5499 18.9933 27.8791C18.9933 27.4139 19.2643 27.0097 19.6595 26.8064C19.7115 26.7793 19.7657 26.7567 19.8221 26.7364C19.9531 26.6912 20.0931 26.6664 20.2399 26.6664C20.7323 26.6664 21.1568 26.9442 21.3601 27.3462C21.4414 27.5065 21.4866 27.6872 21.4866 27.8791Z" fill="white"/>
<path d="M20.5448 32.9334C20.4477 32.9561 20.3461 32.9696 20.2399 32.9696C19.8583 32.9696 19.5172 32.8025 19.2891 32.5428C19.253 32.4999 19.2191 32.4547 19.1875 32.4072C19.1581 32.3621 19.131 32.3147 19.1085 32.2673C19.0339 32.1114 18.9933 31.9398 18.9933 31.7591C18.9933 31.0884 19.5511 30.5463 20.2399 30.5463C20.9287 30.5463 21.4866 31.0884 21.4866 31.7591C21.4866 31.8517 21.4753 31.9398 21.4549 32.0256C21.4346 32.1114 21.4075 32.1927 21.3691 32.2695C21.2607 32.4999 21.0778 32.6895 20.8542 32.8137C20.7594 32.8657 20.6555 32.9064 20.5448 32.9334Z" fill="white"/>
<path fill-rule="evenodd" clip-rule="evenodd" d="M21.9541 19.5999C20.2467 19.5999 18.8623 20.9843 18.8623 22.6893C18.8623 24.3967 20.2467 25.7811 21.9541 25.7811C23.6614 25.7811 25.0458 24.3967 25.0458 22.6893C25.0458 20.9843 23.6614 19.5999 21.9541 19.5999ZM22.3357 24.7739V25.4627H21.5498V24.828C21.403 24.8168 21.2562 24.7919 21.1184 24.758C21.0213 24.7332 20.9265 24.7038 20.8407 24.6699C20.7345 24.6293 20.6397 24.5819 20.5606 24.53L20.4838 24.478L20.7277 23.6243L20.87 23.7079C21.1568 23.8773 21.5001 23.9744 21.8118 23.9744C21.9744 23.9744 22.1076 23.9405 22.2047 23.8795C22.3086 23.8118 22.3696 23.7147 22.3696 23.5927C22.3696 23.5295 22.3583 23.464 22.3086 23.394C22.2747 23.3443 22.2205 23.2946 22.1415 23.2427C22.0512 23.1839 21.9247 23.123 21.7508 23.0597C21.1568 22.8452 20.5493 22.5245 20.5493 21.7837C20.5493 21.1875 20.9446 20.7336 21.5905 20.5823V19.9251H22.3741V20.5303C22.4735 20.5371 22.5706 20.5506 22.6632 20.5687C22.8507 20.6048 23.0268 20.6658 23.1961 20.7516L23.291 20.7991L23.0449 21.6347L22.8755 21.5579C22.7242 21.4856 22.4667 21.3659 22.085 21.3659C21.7824 21.3659 21.5995 21.4856 21.5995 21.6889C21.5995 21.8673 21.7689 21.9915 22.2996 22.206C23.09 22.5019 23.4265 22.8948 23.4265 23.5182C23.4265 24.1415 23.0019 24.6248 22.3357 24.7739Z" fill="white"/>
<path fill-rule="evenodd" clip-rule="evenodd" d="M33.5916 26.1808C29.7748 26.1808 26.6831 29.2748 26.6831 33.0892C26.6831 36.9059 29.7771 39.9977 33.5916 39.9977C37.4082 39.9977 40.5 36.9037 40.5 33.0892C40.5 29.2748 37.406 26.1808 33.5916 26.1808ZM32.7943 33.4077C32.4511 33.6764 31.9723 33.8119 31.3648 33.8119H30.4366V35.4877H29.3774V30.7315H31.3806C31.7668 30.7315 32.1055 30.7969 32.3991 30.9279C32.6927 31.059 32.9163 31.2441 33.0744 31.4857C33.2325 31.7274 33.3115 32.0007 33.3115 32.3078C33.3115 32.7708 33.1376 33.1389 32.7943 33.4077ZM38.2551 33.2157C38.2551 33.6832 38.1648 34.0942 37.9864 34.4465C37.808 34.7988 37.5528 35.0721 37.2186 35.2641C36.8866 35.4561 36.5049 35.5509 36.0735 35.5509C35.649 35.5509 35.2673 35.4561 34.933 35.2663C34.5988 35.0766 34.3413 34.8056 34.1562 34.4556C33.9732 34.1032 33.8806 33.699 33.8784 33.2428V33.0079C33.8784 32.5404 33.9687 32.1271 34.1517 31.7726C34.3345 31.4158 34.592 31.1425 34.924 30.9528C35.256 30.7631 35.6377 30.666 36.0645 30.666C36.4914 30.666 36.873 30.7608 37.205 30.9528C37.537 31.1425 37.7944 31.4158 37.9774 31.7726C38.1603 32.1294 38.2506 32.5404 38.2506 33.0057V33.2157H38.2551Z" fill="white"/>
<path fill-rule="evenodd" clip-rule="evenodd" d="M36.0691 31.4746C35.7145 31.4746 35.4389 31.6034 35.247 31.8585C35.055 32.1137 34.9556 32.4887 34.9534 32.9832V33.2159C34.9534 33.7014 35.0505 34.0785 35.2424 34.3473C35.4344 34.616 35.7122 34.7493 36.0758 34.7493C36.4304 34.7493 36.7036 34.6206 36.8933 34.3631C37.0831 34.1057 37.1802 33.7285 37.1824 33.2339V33.0013C37.1824 32.5022 37.0854 32.1228 36.8933 31.8653C36.7014 31.6056 36.4259 31.4746 36.0691 31.4746Z" fill="white"/>
<path fill-rule="evenodd" clip-rule="evenodd" d="M31.4054 31.5243H30.4343V33.0171H31.3806C31.6606 33.0171 31.8729 32.9561 32.022 32.8342C32.1687 32.7122 32.2433 32.5383 32.2433 32.3102C32.2433 32.0776 32.1687 31.8879 32.022 31.7456C31.8707 31.6033 31.6674 31.5288 31.4054 31.5243Z" fill="white"/>
</g>
</g>
<defs>
<filter id="filter0_dddddd" x="-63.5" y="16" width="184" height="204" filterUnits="userSpaceOnUse" color-interpolation-filters="sRGB">
<feFlood flood-opacity="0" result="BackgroundImageFix"/>
<feColorMatrix in="SourceAlpha" type="matrix" values="0 0 0 0 0 0 0 0 0 0 0 0 0 0 0 0 0 0 127 0"/>
<feOffset dy="2.76726"/>
<feGaussianBlur stdDeviation="1.1069"/>
<feColorMatrix type="matrix" values="0 0 0 0 0.270588 0 0 0 0 0.596078 0 0 0 0 0.203922 0 0 0 0.126516 0"/>
<feBlend mode="normal" in2="BackgroundImageFix" result="effect1_dropShadow"/>
<feColorMatrix in="SourceAlpha" type="matrix" values="0 0 0 0 0 0 0 0 0 0 0 0 0 0 0 0 0 0 127 0"/>
<feOffset dy="6.6501"/>
<feGaussianBlur stdDeviation="2.66004"/>
<feColorMatrix type="matrix" values="0 0 0 0 0.270588 0 0 0 0 0.596078 0 0 0 0 0.203922 0 0 0 0.181752 0"/>
<feBlend mode="normal" in2="effect1_dropShadow" result="effect2_dropShadow"/>
<feColorMatrix in="SourceAlpha" type="matrix" values="0 0 0 0 0 0 0 0 0 0 0 0 0 0 0 0 0 0 127 0"/>
<feOffset dy="12.5216"/>
<feGaussianBlur stdDeviation="5.00862"/>
<feColorMatrix type="matrix" values="0 0 0 0 0.270588 0 0 0 0 0.596078 0 0 0 0 0.203922 0 0 0 0.225 0"/>
<feBlend mode="normal" in2="effect2_dropShadow" result="effect3_dropShadow"/>
<feColorMatrix in="SourceAlpha" type="matrix" values="0 0 0 0 0 0 0 0 0 0 0 0 0 0 0 0 0 0 127 0"/>
<feOffset dy="22.3363"/>
<feGaussianBlur stdDeviation="8.93452"/>
<feColorMatrix type="matrix" values="0 0 0 0 0.270588 0 0 0 0 0.596078 0 0 0 0 0.203922 0 0 0 0.268248 0"/>
<feBlend mode="normal" in2="effect3_dropShadow" result="effect4_dropShadow"/>
<feColorMatrix in="SourceAlpha" type="matrix" values="0 0 0 0 0 0 0 0 0 0 0 0 0 0 0 0 0 0 127 0"/>
<feOffset dy="41.7776"/>
<feGaussianBlur stdDeviation="16.711"/>
<feColorMatrix type="matrix" values="0 0 0 0 0.270588 0 0 0 0 0.596078 0 0 0 0 0.203922 0 0 0 0.323484 0"/>
<feBlend mode="normal" in2="effect4_dropShadow" result="effect5_dropShadow"/>
<feColorMatrix in="SourceAlpha" type="matrix" values="0 0 0 0 0 0 0 0 0 0 0 0 0 0 0 0 0 0 127 0"/>
<feOffset dy="100"/>
<feGaussianBlur stdDeviation="40"/>
<feColorMatrix type="matrix" values="0 0 0 0 0.270588 0 0 0 0 0.596078 0 0 0 0 0.203922 0 0 0 0.45 0"/>
<feBlend mode="normal" in2="effect5_dropShadow" result="effect6_dropShadow"/>
<feBlend mode="normal" in="SourceGraphic" in2="effect6_dropShadow" result="shape"/>
</filter>
<clipPath id="clip0">
<path d="M0 23.5C0 10.5213 10.5213 0 23.5 0H31.5C44.4787 0 55 10.5213 55 23.5V31.5C55 44.4787 44.4787 55 31.5 55H23.5C10.5213 55 0 44.4787 0 31.5V23.5Z" fill="white"/>
</clipPath>
</defs>
</svg>
